<?xml version="1.0" encoding="UTF-8"?>
<svg width="13px" height="13px" viewBox="0 0 13 13" version="1.1" xmlns="http://www.w3.org/2000/svg" xmlns:xlink="http://www.w3.org/1999/xlink">
    <!-- Generator: Sketch 49.3 (51167) - http://www.bohemiancoding.com/sketch -->
    <title>icon-mobile</title>
    <desc>Created with Sketch.</desc>
    <defs></defs>
    <g id="icon-mobile" stroke="none" stroke-width="1" fill="none" fill-rule="evenodd">
        <path d="M3.67500402,9.99485287 L9.32443301,9.99485287 L9.32443301,1.59879749 L3.67500402,1.59879749 L3.67500402,9.99485287 Z M6.50112594,12.0649995 C6.18417243,12.0649995 5.92464211,11.7943883 5.92464211,11.4616015 C5.92464211,11.1282226 6.18417243,10.8576114 6.50112594,10.8576114 C6.8152646,10.8576114 7.07254303,11.1282226 7.07254303,11.4616015 C7.07254303,11.7943883 6.8152646,12.0649995 6.50112594,12.0649995 Z M5.21698568,0.576159242 L7.78301432,0.576159242 C7.8488821,0.576159242 7.90180151,0.678008563 7.90180151,0.802951626 C7.90180151,0.930263278 7.8488821,1.0321126 7.78301432,1.0321126 L5.21698568,1.0321126 C5.15055493,1.0321126 5.09988741,0.930263278 5.09988741,0.802951626 C5.09988741,0.678008563 5.15055493,0.576159242 5.21698568,0.576159242 Z M9.10036995,0 L3.89963005,0 C3.40252533,0 3,0.425753849 3,0.946251253 L3,12.0537487 C3,12.5766147 3.40252533,13 3.89963005,13 L9.10036995,13 C9.59747467,13 10,12.5766147 10,12.0537487 L10,0.946251253 C10,0.425753849 9.59747467,0 9.10036995,0 Z" id="Fill-1" fill="#666769"></path>
    </g>
</svg>