<?xml version="1.0" encoding="UTF-8"?>
<svg width="13px" height="13px" viewBox="0 0 13 13" version="1.1" xmlns="http://www.w3.org/2000/svg" xmlns:xlink="http://www.w3.org/1999/xlink">
    <!-- Generator: Sketch 49.3 (51167) - http://www.bohemiancoding.com/sketch -->
    <title>icon-website</title>
    <desc>Created with Sketch.</desc>
    <defs></defs>
    <g id="icon-website" stroke="none" stroke-width="1" fill="none" fill-rule="evenodd">
        <path d="M6.49736114,12.1865479 C5.93068666,12.1865479 5.27972189,12.1073354 4.79225997,11.9448481 C4.71304741,11.7823608 4.71304741,11.6188579 4.79225997,11.4563706 C5.11723458,10.8064214 5.44220919,10.2346692 5.8514741,9.66799469 C6.0139614,9.50449184 6.17238652,9.34200453 6.17238652,9.10030466 C6.17238652,8.93781736 6.25566127,8.69205531 6.33487383,8.52855246 C6.58063588,8.12436528 6.49736114,7.88266542 6.17238652,7.79939067 C5.52548394,7.63690337 5.20050933,7.06921334 4.71304741,6.82345129 C4.22456995,6.58073588 3.73710803,6.41824857 3.33190531,6.66096399 C3.16941801,6.74423873 2.92365596,6.82345129 2.92365596,6.58073588 C2.92365596,6.25576127 2.51845324,6.0140614 2.59868135,5.68908679 C2.51845324,5.68908679 2.43517849,5.68908679 2.35596593,5.76829935 C2.27269119,5.8515741 2.19347863,5.93078666 2.03099132,5.8515741 C1.86850402,5.68908679 1.95177876,5.52558394 1.95177876,5.36309663 C2.03099132,5.20060933 2.11020388,5.11733458 2.27269119,5.03812202 C2.59868135,4.95484728 2.92365596,4.95484728 3.08614326,5.36309663 C3.33190531,4.62987267 3.82038277,4.22466995 4.30378251,3.89969534 C4.30378251,3.89969534 4.95474728,3.33200531 5.03802202,3.33200531 C5.11723458,3.33200531 5.20050933,3.49449262 5.36299663,3.57472072 C5.52548394,3.57472072 5.60571205,3.57472072 5.60571205,3.41121787 C5.68898679,3.0070307 5.44220919,2.51855324 5.11723458,2.43527849 C5.11723458,2.35606593 5.20050933,2.35606593 5.20050933,2.35606593 C5.44220919,2.27279119 5.76819935,2.11030388 5.68898679,1.86860402 C5.68898679,1.5436294 5.36299663,1.38012655 5.03802202,1.38012655 C4.87553472,1.38012655 4.71304741,1.38012655 4.54954456,1.4634013 C4.22456995,1.62690415 3.82038277,1.78939145 3.33190531,1.78939145 C4.22456995,1.13842669 5.36299663,0.813452074 6.49736114,0.813452074 L7.1483259,0.813452074 C6.66086399,0.892664636 6.17238652,1.05515194 5.8514741,1.21763925 C6.33487383,1.30091399 6.41814857,1.5436294 6.25566127,1.95187876 C6.17238652,2.11030388 6.25566127,2.27279119 6.41814857,2.35606593 C6.58063588,2.43527849 6.74413873,2.43527849 6.82335129,2.27279119 C6.9858386,2.03109132 7.31081321,1.95187876 7.55657526,1.86860402 C7.88256542,1.78939145 8.12426528,1.62690415 8.36596515,1.30091399 C8.36596515,1.21763925 8.4492399,1.21763925 8.52845246,1.13842669 C9.01692992,1.30091399 9.50439184,1.62690415 9.9928693,1.95187876 C9.91365674,1.95187876 9.91365674,2.03109132 9.83038199,2.03109132 C9.66789469,2.19357863 9.42517928,2.27279119 9.66789469,2.59878135 C9.75116943,2.76126865 9.66789469,2.8445434 9.58766658,2.92375596 C9.42517928,3.0070307 9.34190453,2.92375596 9.26269197,2.8445434 C9.17941723,2.76126865 9.17941723,2.59878135 8.93771736,2.59878135 C8.85444261,2.76126865 8.61274275,2.8445434 8.61274275,3.08624326 C9.01692992,3.08624326 8.93771736,3.41121787 9.01692992,3.65799547 C8.52845246,3.73720803 8.36596515,3.98297008 8.61274275,4.38715725 C8.69195531,4.54964456 8.52845246,4.62987267 8.4492399,4.71314741 C8.12426528,5.20060933 7.79929067,5.52558394 7.79929067,6.09327396 C7.79929067,6.66096399 8.20347785,7.23170065 8.85444261,7.1484259 C9.58766658,7.06921334 9.58766658,7.06921334 9.83038199,7.72017811 C9.83038199,7.79939067 9.91365674,7.88266542 9.91365674,7.96187798 C9.9928693,8.12436528 10.076144,8.28685259 9.9928693,8.4493399 C9.75116943,9.10030466 10.076144,9.58776658 10.3178439,10.076244 C10.3970565,10.2346692 10.4803312,10.3179439 10.5595438,10.3971565 C9.50439184,11.5355832 8.12426528,12.1865479 6.49736114,12.1865479 M0.813352074,6.49746114 C0.813352074,6.17248652 0.813352074,5.8515741 0.892564636,5.44230919 C0.97583938,5.44230919 1.05505194,5.52558394 1.13832669,5.52558394 C1.13832669,5.52558394 1.21753925,5.60581205 1.21753925,5.68908679 C1.21753925,5.93078666 1.4633013,6.09327396 1.62680415,6.09327396 C2.27269119,6.17248652 2.51845324,6.74423873 3.08614326,6.90672604 C3.24863057,6.9859386 3.16941801,7.1484259 3.08614326,7.31091321 C2.59868135,7.96187798 3.0069307,8.4493399 3.41111787,8.85454261 C3.82038277,9.17951723 3.82038277,9.50449184 3.89959534,9.9929693 C3.89959534,10.5596438 3.98287008,11.2106085 4.22456995,11.7823608 C2.19347863,10.8064214 0.813352074,8.85454261 0.813352074,6.49746114 M10.7230466,4.30388251 C11.0480212,4.30388251 11.2937833,4.54964456 11.6187579,4.54964456 C11.3729959,4.87563472 10.3178439,4.87563472 9.9928693,4.46636981 C10.2345692,4.38715725 10.3970565,4.30388251 10.7230466,4.30388251 M6.49736114,0 C2.92365596,0 -0.0001,2.92375596 -0.0001,6.49746114 C-0.0001,10.076244 2.92365596,13 6.49736114,13 C10.076144,13 12.9999,10.076244 12.9999,6.49746114 C12.9999,2.92375596 10.076144,0 6.49736114,0" id="Fill-1" fill="#666769"></path>
    </g>
</svg>